HIERARCHY
ROOT Hips
{
  OFFSET 13.6774 106.653 -34.4427
  CHANNELS 6 Xposition Yposition Zposition Zrotation Xrotation Yrotation
  JOINT ToSpine
  {
    OFFSET -2.69724 7.43032 -0.144315
    CHANNELS 3 Zrotation Xrotation Yrotation
    JOINT Spine
    {
      OFFSET -0.0310711 10.7595 1.96963
      CHANNELS 3 Zrotation Xrotation Yrotation
      JOINT Spine1
      {
        OFFSET 19.9056 3.91189 0.764692
        CHANNELS 3 Zrotation Xrotation Yrotation
        JOINT Neck
        {
          OFFSET 25.9749 7.03908 -0.130764
          CHANNELS 3 Zrotation Xrotation Yrotation
          JOINT Head
          {
            OFFSET 9.52751 0.295786 -0.907742
            CHANNELS 3 Zrotation Xrotation Yrotation
            End Site
            {
              OFFSET 16.4037 0.713936 2.7358
            }
          }
        }
        JOINT LeftShoulder
        {
          OFFSET 17.7449 4.33886 11.7777
          CHANNELS 3 Zrotation Xrotation Yrotation
          JOINT LeftArm
          {
            OFFSET 0.911315 1.27913 9.80584
            CHANNELS 3 Zrotation Xrotation Yrotation
            JOINT LeftForeArm
            {
              OFFSET 28.6126 1.18197 -3.53199
              CHANNELS 3 Zrotation Xrotation Yrotation
              JOINT LeftHand
              {
                OFFSET 27.5088 0.0218783 0.327423
                CHANNELS 3 Zrotation Xrotation Yrotation
                End Site
                {
                  OFFSET 18.6038 -0.000155887 0.382096
                }
              }
            }
          }
        }
        JOINT RightShoulder
        {
          OFFSET 17.1009 2.89543 -12.2328
          CHANNELS 3 Zrotation Xrotation Yrotation
          JOINT RightArm
          {
            OFFSET 1.4228 0.178766 -10.211
            CHANNELS 3 Zrotation Xrotation Yrotation
            JOINT RightForeArm
            {
              OFFSET 28.733 1.87905 2.64907
              CHANNELS 3 Zrotation Xrotation Yrotation
              JOINT RightHand
              {
                OFFSET 27.4588 0.290562 -0.101845
                CHANNELS 3 Zrotation Xrotation Yrotation
                End Site
                {
                  OFFSET 17.8396 -0.255518 -0.000602873
                }
              }
            }
          }
        }
      }
    }
  }
  JOINT LeftUpLeg
  {
    OFFSET -5.61296 -2.22332 -10.2353
    CHANNELS 3 Zrotation Xrotation Yrotation
    JOINT LeftLeg
    {
      OFFSET 2.56703 -44.7417 -7.93097
      CHANNELS 3 Zrotation Xrotation Yrotation
      JOINT LeftFoot
      {
        OFFSET 3.16933 -46.5642 -3.96578
        CHANNELS 3 Zrotation Xrotation Yrotation
        JOINT LeftToeBase
        {
          OFFSET 0.346054 -6.02161 12.8035
          CHANNELS 3 Zrotation Xrotation Yrotation
          End Site
          {
            OFFSET 0.134235 -1.35082 5.13018
          }
        }
      }
    }
  }
  JOINT RightUpLeg
  {
    OFFSET -5.7928 -1.72406 10.6446
    CHANNELS 3 Zrotation Xrotation Yrotation
    JOINT RightLeg
    {
      OFFSET -2.57161 -44.7178 -7.85259
      CHANNELS 3 Zrotation Xrotation Yrotation
      JOINT RightFoot
      {
        OFFSET -3.10148 -46.5936 -4.03391
        CHANNELS 3 Zrotation Xrotation Yrotation
        JOINT RightToeBase
        {
          OFFSET -0.0828122 -6.13587 12.8035
          CHANNELS 3 Zrotation Xrotation Yrotation
          End Site
          {
            OFFSET -0.131328 -1.35082 5.13018
          }
        }
      }
    }
  }
}
MOTION
Frames: 8
Frame Time: 0.03333333333333333
0.0000 93.1000 0.0000 -63.6009 -38.1692 -161.3591 -71.3109 0.0704 88.5798 89.3380 76.1994 -0.0615 4.4818 30.2208 -4.9569 -131.4618 21.5641 -162.0336 -152.6500 55.6453 -174.8328 0.1844 -13.6985 -21.4312 -128.3341 38.1055 -79.3663 18.9512 -16.6344 -127.9311 -0.0177 0.2196 0.3736 -1.7227 8.1171 26.9070 -54.6838 -34.4331 153.6820 6.2802 1.8608 111.0095 0.2602 -0.4965 0.5725 -37.2097 16.3866 94.1967 -3.4389 41.9429 -10.3509 -2.0415 -5.9384 -1.5420 2.2406 -9.9467 7.0662 -52.7493 -13.9975 78.4166 -0.0332 30.2236 5.1214 -4.5037 -9.7129 1.6379 1.9677 -16.2218 -5.7290 
0.0000 93.1000 0.0000 -63.0943 -39.1372 -161.4516 -71.3330 -0.4818 88.5029 88.8585 76.0931 1.7818 4.7054 29.2913 -5.2601 -130.5309 21.0493 -163.7410 -150.7701 54.8182 -176.9707 -0.1456 -13.4211 -21.8142 -128.8172 38.6859 -79.3473 19.7250 -16.0668 -127.2902 0.1443 0.2861 0.2984 -2.0565 8.3667 26.5217 -54.7206 -34.7815 153.7178 7.0685 1.9912 110.0428 0.2913 -0.5345 0.2061 -38.6442 16.3049 93.4561 -3.1146 38.7273 -10.3276 -3.3247 -3.7680 -0.9444 2.1644 -9.8317 8.0712 -53.6209 -12.9901 77.5492 -0.1181 30.4574 5.8885 -3.1826 -9.8592 0.9119 1.5862 -16.0907 -5.2331 
0.0000 93.1000 0.0000 -62.9392 -40.2208 -161.0978 -71.1935 -0.7789 88.4312 87.2771 75.6816 2.3964 5.1515 29.2610 -6.6891 -130.6822 20.6531 -163.0580 -152.0065 54.6223 -176.5541 -0.2155 -13.4472 -20.9879 -129.6051 38.2061 -78.6050 19.2442 -15.5762 -126.2114 -0.0488 0.0090 0.9715 -2.5748 8.3796 26.3658 -54.6246 -35.4971 154.2571 6.8410 2.2808 109.4403 -0.3089 -0.1981 -0.4326 -38.9073 16.8297 93.4570 -2.7852 35.4297 -10.2098 -4.0108 -2.6019 -0.0333 1.3566 -7.7153 8.7313 -54.2127 -13.0014 77.4017 -0.1907 30.2712 8.0806 -2.9680 -9.7364 0.3041 2.1190 -15.9396 -5.3449 
0.0000 93.1000 0.0000 -62.2628 -41.5264 -159.8183 -71.1264 -0.3648 88.4025 87.5762 75.2320 1.3724 4.8661 28.8810 -6.7024 -128.6137 20.7210 -166.4045 -145.9431 54.1948 -179.6948 -0.0814 -13.7768 -20.9977 -129.1082 37.3604 -78.4816 18.9092 -15.9440 -126.0383 0.0587 -0.0661 0.7804 -2.3152 7.9617 26.4117 -55.5275 -35.2183 153.0170 6.3899 1.6454 109.3672 -0.1083 -0.1336 0.0064 -39.2835 16.4473 94.8819 -3.3510 34.5552 -8.3648 -4.7520 -2.2606 -0.1964 0.2404 -5.6148 9.2804 -54.6328 -11.9730 77.8589 -0.5972 29.7591 6.3805 -1.9300 -12.1647 0.8571 1.2894 -13.0025 -4.0459 
0.0000 93.1000 0.0000 -61.9672 -43.0707 -159.4203 -70.8877 0.1115 88.3705 88.2948 74.2716 0.8133 5.1480 28.4881 -5.9720 -129.8879 20.8772 -165.7574 -149.7532 54.0767 -177.7863 0.0696 -13.9619 -21.5942 -129.2218 36.5649 -77.7189 18.9547 -15.6545 -126.4035 0.0330 0.0534 0.6227 -1.8733 7.9775 25.8645 -55.3811 -36.1178 153.3191 7.1305 1.3996 109.2417 0.2316 -0.3113 0.2807 -39.0805 17.1774 97.7272 -2.7457 35.6211 -11.4596 -5.3325 -3.2326 -0.5505 -0.1897 -4.5210 11.3689 -54.5776 -11.1493 78.1249 0.0742 30.2579 4.5816 -2.5997 -13.4884 1.7869 1.1876 -11.1715 -3.4709 
0.0000 93.1000 0.0000 -61.8937 -44.7929 -159.5883 -70.8440 0.7804 88.3127 90.5519 74.1794 -1.2044 4.7590 28.2907 -5.3749 -130.1001 21.0132 -165.9831 -151.0660 54.0584 -176.8791 0.5634 -13.9493 -22.2515 -129.5574 35.9328 -77.3733 18.8938 -15.0234 -126.3406 0.1003 -0.2967 0.1997 -1.5794 8.0730 25.5616 -55.2586 -35.8217 154.1290 6.6639 1.4099 109.5196 0.3745 0.0822 0.4252 -39.0843 16.8837 99.2897 -3.4519 36.8520 -10.4463 -4.7307 -4.0541 -0.7910 -0.3655 -3.5304 8.4142 -54.6939 -10.4755 78.6129 -1.1407 32.0670 3.5627 -2.0526 -15.0595 2.2679 1.5550 -9.5262 -3.8169 
0.0000 93.1000 0.0000 -61.7707 -45.1081 -160.9037 -70.9787 0.1277 88.3253 91.5095 74.0184 -1.7052 4.4142 28.0119 -5.3047 -130.6918 21.0800 -166.2067 -151.5941 54.1768 -175.5773 -0.0395 -14.1826 -23.0682 -129.7916 34.8446 -76.3964 18.6004 -15.0031 -125.8290 -0.2222 0.1143 0.5908 -1.7206 8.3039 24.9133 -55.3145 -36.5866 153.8426 6.9408 2.1910 109.4958 0.5146 -0.4315 0.4858 -39.3785 16.6292 99.5692 -3.5077 35.7529 -7.7662 -4.0764 -2.6855 -0.7625 -0.1253 -3.1584 6.3341 -54.4114 -10.5525 80.0279 -0.1022 33.6343 2.0946 -2.8582 -15.3203 1.8353 1.6152 -9.8543 -4.7943 
0.0000 93.1000 0.0000 -63.0255 -44.3436 -160.8213 -70.9740 0.2702 88.3891 90.5687 74.1295 -0.1730 4.8702 27.7200 -5.5999 -131.3181 21.1065 -164.6847 -153.4124 54.6878 -174.5571 0.2706 -13.7595 -23.1169 -130.1379 34.4106 -75.3100 18.8930 -15.6759 -126.0132 -0.3983 -0.3123 0.3926 -1.8013 8.3886 24.8093 -54.8611 -36.3498 154.3145 6.6058 2.2772 108.9730 0.3338 -0.0210 0.2290 -40.9235 16.2588 100.5559 -2.9583 33.6275 -5.6491 -3.2069 -1.2021 -0.4241 0.0429 -2.2414 4.0278 -54.2910 -9.9688 80.3509 -0.1309 33.1200 1.8444 -3.1539 -15.9752 1.4668 1.2409 -9.1359 -4.8149 
